<svg xmlns="http://www.w3.org/2000/svg" version="1.1" xmlns:xlink="http://www.w3.org/1999/xlink" width="512" height="512" x="0" y="0" viewBox="0 0 512 512" style="enable-background:new 0 0 512 512" xml:space="preserve" class=""><g><path fill="#9dc6fb" d="M106.13 503.052c-31.377 0-56.903-25.527-56.903-56.903V297.726c0-13.358-10.868-24.226-24.227-24.226-9.665 0-17.5-7.835-17.5-17.5s7.835-17.5 17.5-17.5c13.358 0 24.227-10.868 24.227-24.226V65.851c0-31.376 25.526-56.903 56.903-56.903 9.665 0 17.5 7.835 17.5 17.5s-7.835 17.5-17.5 17.5c-12.077 0-21.903 9.826-21.903 21.903v148.423c0 16.261-6.588 31.013-17.233 41.726 10.646 10.713 17.233 25.465 17.233 41.726v148.423c0 12.078 9.826 21.903 21.903 21.903 9.665 0 17.5 7.835 17.5 17.5s-7.835 17.5-17.5 17.5zM405.87 503.052c31.377 0 56.903-25.527 56.903-56.903V297.726c0-13.358 10.868-24.226 24.227-24.226 9.665 0 17.5-7.835 17.5-17.5s-7.835-17.5-17.5-17.5c-13.358 0-24.227-10.868-24.227-24.226V65.851c0-31.376-25.526-56.903-56.903-56.903-9.665 0-17.5 7.835-17.5 17.5s7.835 17.5 17.5 17.5c12.077 0 21.903 9.826 21.903 21.903v148.423c0 16.261 6.588 31.013 17.233 41.726-10.646 10.713-17.233 25.465-17.233 41.726v148.423c0 12.078-9.826 21.903-21.903 21.903-9.665 0-17.5 7.835-17.5 17.5s7.835 17.5 17.5 17.5z" opacity="1" data-original="#9dc6fb" class=""></path><g fill="#80b4fb"><path d="M64.556 446.149V297.726c0-13.358-10.868-24.226-24.227-24.226-9.665 0-17.5-7.835-17.5-17.5s7.835-17.5 17.5-17.5c13.358 0 24.227-10.868 24.227-24.226V65.851c0-28.006 20.342-51.334 47.023-56.027a17.47 17.47 0 0 0-5.449-.876c-31.377 0-56.903 25.527-56.903 56.903v148.423c0 13.358-10.868 24.226-24.227 24.226-9.665 0-17.5 7.835-17.5 17.5s7.835 17.5 17.5 17.5c13.358 0 24.227 10.868 24.227 24.226v148.423c0 31.376 25.526 56.903 56.903 56.903a17.47 17.47 0 0 0 5.449-.876c-26.681-4.693-47.023-28.021-47.023-56.027zM403.7 485.552c0-9.665 7.835-17.5 17.5-17.5 12.077 0 21.903-9.826 21.903-21.903V297.726c0-16.261 6.588-31.013 17.233-41.726-10.646-10.713-17.233-25.465-17.233-41.726V65.851c0-12.078-9.826-21.903-21.903-21.903-9.665 0-17.5-7.835-17.5-17.5 0-7.761 5.056-14.332 12.051-16.624a56.947 56.947 0 0 0-9.88-.876c-9.665 0-17.5 7.835-17.5 17.5s7.835 17.5 17.5 17.5c12.077 0 21.903 9.826 21.903 21.903v148.423c0 16.261 6.588 31.013 17.233 41.726-10.646 10.713-17.233 25.465-17.233 41.726v148.423c0 12.078-9.826 21.903-21.903 21.903-9.665 0-17.5 7.835-17.5 17.5s7.835 17.5 17.5 17.5c3.371 0 6.669-.312 9.88-.876-6.995-2.292-12.051-8.863-12.051-16.624z" fill="#80b4fb" opacity="1" data-original="#80b4fb" class=""></path></g><path d="M106.13 510.55c-35.51 0-64.399-28.89-64.399-64.4V297.73c0-9.225-7.505-16.73-16.73-16.73-13.785 0-25-11.215-25-25s11.215-25 25-25c9.226 0 16.73-7.505 16.73-16.73V65.85c0-35.51 28.89-64.4 64.399-64.4 13.785 0 25 11.215 25 25s-11.215 25-25 25c-7.939 0-14.399 6.46-14.399 14.4v148.42c0 15.345-5.17 29.92-14.685 41.73 9.515 11.81 14.685 26.385 14.685 41.73v106.18c0 4.142-3.357 7.5-7.5 7.5s-7.5-3.358-7.5-7.5V297.73c0-13.734-5.348-26.676-15.059-36.442a7.5 7.5 0 0 1 0-10.576c9.711-9.766 15.059-22.708 15.059-36.442V65.85c0-16.211 13.188-29.4 29.399-29.4 5.514 0 10-4.486 10-10s-4.486-10-10-10c-27.239 0-49.399 22.161-49.399 49.4v148.42C56.73 231.766 42.496 246 25 246c-5.514 0-10 4.486-10 10s4.486 10 10 10c17.496 0 31.73 14.234 31.73 31.73v148.42c0 27.239 22.16 49.4 49.399 49.4 5.514 0 10-4.486 10-10s-4.486-10-10-10c-16.211 0-29.399-13.189-29.399-29.4v-12.28c0-4.142 3.357-7.5 7.5-7.5s7.5 3.358 7.5 7.5v12.28c0 7.94 6.46 14.4 14.399 14.4 13.785 0 25 11.215 25 25s-11.214 25-24.999 25zM405.87 510.55c-13.785 0-25-11.215-25-25s11.215-25 25-25c7.939 0 14.399-6.46 14.399-14.4V297.73c0-15.345 5.17-29.92 14.685-41.73-9.515-11.81-14.685-26.385-14.685-41.73V65.85c0-7.94-6.46-14.4-14.399-14.4-13.785 0-25-11.215-25-25s11.215-25 25-25c35.51 0 64.399 28.89 64.399 64.4v35.95c0 4.142-3.357 7.5-7.5 7.5s-7.5-3.358-7.5-7.5V65.85c0-27.239-22.16-49.4-49.399-49.4-5.514 0-10 4.486-10 10s4.486 10 10 10c16.211 0 29.399 13.189 29.399 29.4v148.42c0 13.734 5.348 26.676 15.059 36.442a7.5 7.5 0 0 1 0 10.576c-9.711 9.766-15.059 22.708-15.059 36.442v148.42c0 16.211-13.188 29.4-29.399 29.4-5.514 0-10 4.486-10 10s4.486 10 10 10c27.239 0 49.399-22.161 49.399-49.4V297.73c0-17.496 14.234-31.73 31.73-31.73 5.514 0 10-4.486 10-10s-4.486-10-10-10c-17.496 0-31.73-14.234-31.73-31.73V131.4c0-4.142 3.357-7.5 7.5-7.5s7.5 3.358 7.5 7.5v82.87c0 9.225 7.505 16.73 16.73 16.73 13.785 0 25 11.215 25 25s-11.215 25-25 25c-9.226 0-16.73 7.505-16.73 16.73v148.42c.001 35.51-28.889 64.4-64.399 64.4z" fill="#000000" opacity="1" data-original="#000000" class="hovered-path custom-cursor-on-hover"></path><path d="M362.758 139.119c-15.454 0-28.027-12.573-28.027-28.027V91.396c0-15.454 12.573-28.027 28.027-28.027s28.027 12.573 28.027 28.027v19.696c0 15.454-12.573 28.027-28.027 28.027zm0-60.751c-7.184 0-13.027 5.844-13.027 13.027v19.696c0 7.183 5.844 13.027 13.027 13.027s13.027-5.844 13.027-13.027V91.396c0-7.184-5.844-13.028-13.027-13.028zM280.648 139.119c-15.454 0-28.027-12.573-28.027-28.027V91.396c0-15.454 12.573-28.027 28.027-28.027s28.027 12.573 28.027 28.027v19.696c.001 15.454-12.572 28.027-28.027 28.027zm0-60.751c-7.184 0-13.027 5.844-13.027 13.027v19.696c0 7.183 5.844 13.027 13.027 13.027s13.027-5.844 13.027-13.027V91.396c.001-7.184-5.843-13.028-13.027-13.028zM219.067 139.119a7.5 7.5 0 0 1-7.5-7.5V70.868c0-4.142 3.357-7.5 7.5-7.5s7.5 3.358 7.5 7.5v60.751a7.5 7.5 0 0 1-7.5 7.5zM178.013 139.119a7.5 7.5 0 0 1-7.5-7.5V70.868c0-4.142 3.357-7.5 7.5-7.5s7.5 3.358 7.5 7.5v60.751a7.5 7.5 0 0 1-7.5 7.5zM136.958 139.119a7.5 7.5 0 0 1-7.5-7.5V70.868c0-4.142 3.357-7.5 7.5-7.5s7.5 3.358 7.5 7.5v60.751a7.5 7.5 0 0 1-7.5 7.5zM383.285 242.29a7.5 7.5 0 0 1-7.5-7.5v-60.751c0-4.142 3.357-7.5 7.5-7.5s7.5 3.358 7.5 7.5v60.751a7.5 7.5 0 0 1-7.5 7.5zM342.23 242.29a7.5 7.5 0 0 1-7.5-7.5v-60.751c0-4.142 3.357-7.5 7.5-7.5s7.5 3.358 7.5 7.5v60.751a7.5 7.5 0 0 1-7.5 7.5zM301.176 242.29a7.5 7.5 0 0 1-7.5-7.5v-60.751c0-4.142 3.357-7.5 7.5-7.5s7.5 3.358 7.5 7.5v60.751a7.5 7.5 0 0 1-7.5 7.5zM239.594 242.29c-15.454 0-28.026-12.573-28.026-28.027v-19.696c0-15.454 12.572-28.027 28.026-28.027s28.027 12.573 28.027 28.027v19.696c0 15.454-12.573 28.027-28.027 28.027zm0-60.751c-7.183 0-13.026 5.844-13.026 13.027v19.696c0 7.183 5.844 13.027 13.026 13.027 7.184 0 13.027-5.844 13.027-13.027v-19.696c0-7.183-5.844-13.027-13.027-13.027zM178.013 242.29a7.5 7.5 0 0 1-7.5-7.5v-60.751c0-4.142 3.357-7.5 7.5-7.5s7.5 3.358 7.5 7.5v60.751a7.5 7.5 0 0 1-7.5 7.5zM136.958 242.29a7.5 7.5 0 0 1-7.5-7.5v-60.751c0-4.142 3.357-7.5 7.5-7.5s7.5 3.358 7.5 7.5v60.751a7.5 7.5 0 0 1-7.5 7.5zM362.758 345.461c-15.454 0-28.027-12.573-28.027-28.027v-19.696c0-15.454 12.573-28.027 28.027-28.027s28.027 12.573 28.027 28.027v19.696c0 15.454-12.573 28.027-28.027 28.027zm0-60.751c-7.184 0-13.027 5.844-13.027 13.027v19.696c0 7.183 5.844 13.027 13.027 13.027s13.027-5.844 13.027-13.027v-19.696c0-7.183-5.844-13.027-13.027-13.027zM301.176 345.461a7.5 7.5 0 0 1-7.5-7.5V277.21c0-4.142 3.357-7.5 7.5-7.5s7.5 3.358 7.5 7.5v60.751a7.5 7.5 0 0 1-7.5 7.5zM260.121 345.461a7.5 7.5 0 0 1-7.5-7.5V277.21c0-4.142 3.357-7.5 7.5-7.5s7.5 3.358 7.5 7.5v60.751a7.5 7.5 0 0 1-7.5 7.5zM198.54 345.461c-15.454 0-28.027-12.573-28.027-28.027v-19.696c0-15.454 12.573-28.027 28.027-28.027s28.027 12.573 28.027 28.027v19.696c0 15.454-12.573 28.027-28.027 28.027zm0-60.751c-7.184 0-13.027 5.844-13.027 13.027v19.696c0 7.183 5.844 13.027 13.027 13.027s13.027-5.844 13.027-13.027v-19.696c0-7.183-5.843-13.027-13.027-13.027zM136.958 345.461a7.5 7.5 0 0 1-7.5-7.5V277.21c0-4.142 3.357-7.5 7.5-7.5s7.5 3.358 7.5 7.5v60.751a7.5 7.5 0 0 1-7.5 7.5zM157.485 448.632c-15.454 0-28.027-12.573-28.027-28.027v-19.696c0-15.454 12.573-28.027 28.027-28.027s28.027 12.573 28.027 28.027v19.696c.001 15.454-12.573 28.027-28.027 28.027zm0-60.751c-7.184 0-13.027 5.844-13.027 13.027v19.696c0 7.183 5.844 13.027 13.027 13.027s13.027-5.844 13.027-13.027v-19.696c.001-7.183-5.843-13.027-13.027-13.027zM219.067 448.632a7.5 7.5 0 0 1-7.5-7.5v-60.751c0-4.142 3.357-7.5 7.5-7.5s7.5 3.358 7.5 7.5v60.751a7.5 7.5 0 0 1-7.5 7.5zM280.648 448.632c-15.454 0-28.027-12.573-28.027-28.027v-19.696c0-15.454 12.573-28.027 28.027-28.027s28.027 12.573 28.027 28.027v19.696c.001 15.454-12.572 28.027-28.027 28.027zm0-60.751c-7.184 0-13.027 5.844-13.027 13.027v19.696c0 7.183 5.844 13.027 13.027 13.027s13.027-5.844 13.027-13.027v-19.696c.001-7.183-5.843-13.027-13.027-13.027zM342.23 448.632a7.5 7.5 0 0 1-7.5-7.5v-60.751c0-4.142 3.357-7.5 7.5-7.5s7.5 3.358 7.5 7.5v60.751a7.5 7.5 0 0 1-7.5 7.5zM383.285 448.632a7.5 7.5 0 0 1-7.5-7.5v-60.751c0-4.142 3.357-7.5 7.5-7.5s7.5 3.358 7.5 7.5v60.751a7.5 7.5 0 0 1-7.5 7.5z" fill="#000000" opacity="1" data-original="#000000" class=""></path></g></svg>