<svg xmlns="http://www.w3.org/2000/svg" version="1.1" xmlns:xlink="http://www.w3.org/1999/xlink" width="512" height="512" x="0" y="0" viewBox="0 0 512.105 512" style="enable-background:new 0 0 512 512" xml:space="preserve" class=""><g><path fill="#ffeb3a" d="M418.238 8.59 375.57 25.656 349.973 8.59l-51.2 17.066L256.105 8.59l-42.668 17.066L153.703 8.59l-25.598 17.066L93.973 8.59v221.867h324.265zm0 0" opacity="1" data-original="#ffeb3a"></path><path fill="#fec108" d="M418.238 8.59v221.867h-25.601V18.828zm0 0" opacity="1" data-original="#fec108"></path><path fill="#e91e63" d="M136.637 196.324h51.203c4.71 0 8.531 3.82 8.531 8.531v25.602h-68.266v-25.602c0-4.71 3.82-8.53 8.532-8.53zm0 0" opacity="1" data-original="#e91e63"></path><path fill="#1566c0" d="M17.172 230.457h477.867c4.711 0 8.531 3.82 8.531 8.531v34.137c0 4.71-3.82 8.531-8.53 8.531H17.171a8.533 8.533 0 0 1-8.535-8.531v-34.137c0-4.71 3.82-8.531 8.535-8.531zm0 0" opacity="1" data-original="#1566c0"></path><path fill="#2296f3" d="M17.172 230.457h452.265a8.533 8.533 0 0 1 8.536 8.531v34.137c0 4.71-3.82 8.531-8.535 8.531H17.171a8.533 8.533 0 0 1-8.535-8.531v-34.137c0-4.71 3.82-8.531 8.535-8.531zm0 0" opacity="1" data-original="#2296f3"></path><path fill="#3f51b5" d="M59.84 230.457H452.37v51.2H59.84zm0 0" opacity="1" data-original="#3f51b5"></path><path d="M495.04 290.191H17.171c-9.426 0-17.067-7.64-17.067-17.066v-34.137c0-9.425 7.641-17.066 17.067-17.066h477.867c9.426 0 17.066 7.64 17.066 17.066v34.137c0 9.426-7.64 17.066-17.066 17.066zM17.171 238.988v34.137h477.867v-34.137zm0 0" fill="#000000" opacity="1" data-original="#000000"></path><path d="M59.84 290.191a8.534 8.534 0 0 1-8.535-8.535v-51.199a8.534 8.534 0 1 1 17.066 0v51.2a8.533 8.533 0 0 1-8.531 8.534zM452.371 290.191a8.533 8.533 0 0 1-8.531-8.535v-51.199a8.533 8.533 0 1 1 17.066 0v51.2a8.534 8.534 0 0 1-8.535 8.534zM418.238 238.988H93.973a8.533 8.533 0 0 1-8.536-8.531V8.59c0-2.957 1.532-5.707 4.047-7.262s5.657-1.7 8.301-.375l29.707 14.856 21.477-14.32A8.536 8.536 0 0 1 156.05.39l56.926 16.254L252.93.665a8.657 8.657 0 0 1 6.351 0l39.754 15.913L347.273.492a8.538 8.538 0 0 1 7.434.996l21.863 14.578L415.074.703a8.535 8.535 0 0 1 7.934.852 8.543 8.543 0 0 1 3.765 7.035v221.867c0 4.711-3.82 8.531-8.535 8.531zm-315.734-17.066h307.2V21.195l-30.958 12.39a8.543 8.543 0 0 1-7.91-.855l-22.129-14.753-47.238 15.777a8.55 8.55 0 0 1-5.871-.168L256.105 17.78l-39.492 15.805a8.53 8.53 0 0 1-5.523.27l-55.934-15.981-22.316 14.883a8.608 8.608 0 0 1-8.531.535l-21.805-10.895zm0 0" fill="#000000" opacity="1" data-original="#000000"></path><path d="M239.04 68.324H128.104a8.534 8.534 0 1 1 0-17.066H239.04c4.711 0 8.531 3.82 8.531 8.531a8.533 8.533 0 0 1-8.53 8.535zM239.04 102.457H128.104a8.534 8.534 0 1 1 0-17.066H239.04a8.533 8.533 0 0 1 0 17.066zM384.105 68.324H273.172a8.534 8.534 0 1 1 0-17.066h110.933c4.711 0 8.532 3.82 8.532 8.531a8.533 8.533 0 0 1-8.532 8.535zM384.105 102.457H273.172a8.534 8.534 0 1 1 0-17.066h110.933a8.533 8.533 0 0 1 0 17.066zM384.105 136.59h-256a8.534 8.534 0 1 1 0-17.067h256c4.711 0 8.532 3.82 8.532 8.532a8.533 8.533 0 0 1-8.532 8.535zM384.105 170.723h-256a8.533 8.533 0 1 1 0-17.067h256c4.711 0 8.532 3.82 8.532 8.535 0 4.711-3.82 8.532-8.532 8.532zM384.105 204.855H230.504a8.532 8.532 0 0 1-8.531-8.53 8.533 8.533 0 0 1 8.53-8.536h153.602c4.711 0 8.532 3.82 8.532 8.535 0 4.711-3.82 8.531-8.532 8.531zM196.371 238.988h-68.266a8.533 8.533 0 0 1-8.535-8.531v-25.602c0-9.425 7.64-17.066 17.067-17.066h51.203c9.426 0 17.066 7.64 17.066 17.066v25.602c0 4.711-3.82 8.531-8.535 8.531zm-59.734-17.066h51.203v-17.067h-51.203zM401.172 426.723h-17.067c-9.425 0-17.066-7.641-17.066-17.067v-34.133c0-9.425 7.64-17.066 17.066-17.066h17.067c9.426 0 17.066 7.64 17.066 17.066v34.133c0 9.426-7.64 17.067-17.066 17.067zm-17.067-51.2v34.133h17.067v-34.133zM239.04 426.723a8.533 8.533 0 0 1-8.536-8.532v-51.203c0-4.71 3.82-8.531 8.535-8.531 4.711 0 8.531 3.82 8.531 8.531v51.203c0 4.711-3.82 8.532-8.53 8.532zM204.906 426.723a8.533 8.533 0 0 1-8.535-8.532v-51.203c0-4.71 3.82-8.531 8.535-8.531 4.711 0 8.531 3.82 8.531 8.531v51.203c0 4.711-3.82 8.532-8.53 8.532zM273.172 426.723a8.533 8.533 0 0 1-8.535-8.532v-51.203c0-4.71 3.82-8.531 8.535-8.531 4.71 0 8.531 3.82 8.531 8.531v51.203c0 4.711-3.82 8.532-8.531 8.532zM102.504 426.723a8.532 8.532 0 0 1-8.531-8.532v-51.203a8.533 8.533 0 0 1 17.066 0v51.203c0 4.711-3.82 8.532-8.535 8.532zm0 0" fill="#000000" opacity="1" data-original="#000000"></path><path d="M102.504 426.723a8.532 8.532 0 0 1-8.531-8.532v-51.203a8.533 8.533 0 0 1 17.066 0v51.203c0 4.711-3.82 8.532-8.535 8.532zM162.238 426.723h-17.066c-9.426 0-17.067-7.641-17.067-17.067v-34.133c0-9.425 7.641-17.066 17.067-17.066h17.066c9.426 0 17.067 7.64 17.067 17.066v34.133c0 9.426-7.64 17.067-17.067 17.067zm-17.066-51.2v34.133h17.066v-34.133zM332.906 426.723H315.84c-9.426 0-17.067-7.641-17.067-17.067v-34.133c0-9.425 7.641-17.066 17.067-17.066h17.066c9.426 0 17.067 7.64 17.067 17.066v34.133c0 9.426-7.641 17.067-17.067 17.067zm-17.066-51.2v34.133h17.066v-34.133zM128.105 341.39H111.04c-9.426 0-17.066-7.64-17.066-17.066v-42.668a8.533 8.533 0 0 1 17.066 0v42.668h17.066v-42.668c0-4.71 3.82-8.531 8.532-8.531a8.533 8.533 0 0 1 8.535 8.531v42.668c0 9.426-7.64 17.067-17.067 17.067zM273.172 341.39a8.534 8.534 0 0 1-8.535-8.535v-51.199c0-4.71 3.82-8.531 8.535-8.531 4.71 0 8.531 3.82 8.531 8.531v51.2a8.533 8.533 0 0 1-8.531 8.535zM307.305 341.39a8.533 8.533 0 0 1-8.532-8.535v-51.199c0-4.71 3.82-8.531 8.532-8.531a8.533 8.533 0 0 1 8.535 8.531v51.2a8.534 8.534 0 0 1-8.535 8.535zM239.04 341.39a8.534 8.534 0 0 1-8.536-8.535v-51.199c0-4.71 3.82-8.531 8.535-8.531 4.711 0 8.531 3.82 8.531 8.531v51.2a8.533 8.533 0 0 1-8.53 8.535zM409.703 341.39a8.533 8.533 0 0 1-8.531-8.535v-51.199c0-4.71 3.82-8.531 8.531-8.531a8.533 8.533 0 0 1 8.535 8.531v51.2a8.534 8.534 0 0 1-8.535 8.535zm0 0" fill="#000000" opacity="1" data-original="#000000"></path><path d="M409.703 341.39a8.533 8.533 0 0 1-8.531-8.535v-51.199c0-4.71 3.82-8.531 8.531-8.531a8.533 8.533 0 0 1 8.535 8.531v51.2a8.534 8.534 0 0 1-8.535 8.535zM367.04 341.39h-17.067c-9.426 0-17.067-7.64-17.067-17.066v-42.668c0-4.71 3.82-8.531 8.531-8.531a8.533 8.533 0 0 1 8.536 8.531v42.668h17.066v-42.668c0-4.71 3.82-8.531 8.531-8.531a8.533 8.533 0 0 1 8.535 8.531v42.668c0 9.426-7.64 17.067-17.066 17.067zM196.371 341.39h-17.066c-9.426 0-17.067-7.64-17.067-17.066v-42.668c0-4.71 3.82-8.531 8.535-8.531 4.711 0 8.532 3.82 8.532 8.531v42.668h17.066v-42.668c0-4.71 3.82-8.531 8.535-8.531 4.711 0 8.531 3.82 8.531 8.531v42.668c0 9.426-7.64 17.067-17.066 17.067zM128.105 512.055H111.04c-9.426 0-17.066-7.64-17.066-17.067v-34.133c0-9.425 7.64-17.066 17.066-17.066h17.066c9.426 0 17.067 7.64 17.067 17.066v34.133c0 9.426-7.64 17.067-17.067 17.067zm-17.066-51.2v34.133h17.066v-34.133zM307.305 512.055a8.532 8.532 0 0 1-8.532-8.532v-51.199a8.533 8.533 0 1 1 17.067 0v51.2c0 4.71-3.82 8.53-8.535 8.53zM204.906 512.055a8.533 8.533 0 0 1-8.535-8.532v-51.199a8.534 8.534 0 1 1 17.066 0v51.2c0 4.71-3.82 8.53-8.53 8.53zM170.773 512.055a8.533 8.533 0 0 1-8.535-8.532v-51.199a8.534 8.534 0 1 1 17.067 0v51.2c0 4.71-3.82 8.53-8.532 8.53zM409.703 512.055a8.532 8.532 0 0 1-8.531-8.532v-51.199a8.533 8.533 0 1 1 17.066 0v51.2c0 4.71-3.82 8.53-8.535 8.53zm0 0" fill="#000000" opacity="1" data-original="#000000"></path><path d="M409.703 512.055a8.532 8.532 0 0 1-8.531-8.532v-51.199a8.533 8.533 0 1 1 17.066 0v51.2c0 4.71-3.82 8.53-8.535 8.53zM367.04 512.055h-17.067c-9.426 0-17.067-7.64-17.067-17.067v-34.133c0-9.425 7.64-17.066 17.067-17.066h17.066c9.426 0 17.066 7.64 17.066 17.066v34.133c0 9.426-7.64 17.067-17.066 17.067zm-17.067-51.2v34.133h17.066v-34.133zM264.637 512.055H247.57c-9.425 0-17.066-7.64-17.066-17.067v-34.133c0-9.425 7.64-17.066 17.066-17.066h17.067c9.426 0 17.066 7.64 17.066 17.066v34.133c0 9.426-7.64 17.067-17.066 17.067zm-17.067-51.2v34.133h17.067v-34.133zM477.973 503.523a8.534 8.534 0 0 1-8.536-8.535V443.79c0-4.71 3.82-8.531 8.536-8.531 4.71 0 8.53 3.82 8.53 8.531v51.2a8.533 8.533 0 0 1-8.53 8.534zm0 0" fill="#000000" opacity="1" data-original="#000000"></path><path d="M477.973 512.055a8.53 8.53 0 0 1-6.036-2.5l-25.597-25.598a8.538 8.538 0 0 1 .101-11.965 8.538 8.538 0 0 1 11.965-.101l19.567 19.566 19.566-19.566a8.534 8.534 0 0 1 12.066 12.066l-25.601 25.598a8.52 8.52 0 0 1-6.031 2.5zM477.973 418.191a8.534 8.534 0 0 1-8.536-8.535V392.59c0-4.711 3.82-8.535 8.536-8.535 4.71 0 8.53 3.824 8.53 8.535v17.066a8.533 8.533 0 0 1-8.53 8.535zM477.973 366.988a8.533 8.533 0 0 1-8.536-8.531v-17.066a8.534 8.534 0 1 1 17.067 0v17.066c0 4.711-3.82 8.531-8.531 8.531zM34.238 503.523a8.536 8.536 0 0 1-8.535-8.535V443.79c0-4.71 3.824-8.531 8.535-8.531a8.533 8.533 0 0 1 8.535 8.531v51.2a8.534 8.534 0 0 1-8.535 8.534zm0 0" fill="#000000" opacity="1" data-original="#000000"></path><path d="M34.238 512.055a8.52 8.52 0 0 1-6.031-2.5L2.605 483.957a8.537 8.537 0 0 1-2.328-8.3 8.543 8.543 0 0 1 6.094-6.094 8.537 8.537 0 0 1 8.3 2.328l19.567 19.566 19.567-19.566a8.534 8.534 0 0 1 12.066 12.066L40.27 509.555a8.52 8.52 0 0 1-6.032 2.5zM34.238 418.191a8.536 8.536 0 0 1-8.535-8.535V392.59c0-4.711 3.824-8.535 8.535-8.535a8.536 8.536 0 0 1 8.535 8.535v17.066a8.534 8.534 0 0 1-8.535 8.535zM34.238 366.988c-4.71 0-8.535-3.82-8.535-8.531v-17.066a8.536 8.536 0 0 1 17.07 0v17.066c0 4.711-3.82 8.531-8.535 8.531zm0 0" fill="#000000" opacity="1" data-original="#000000"></path></g></svg>