<svg xmlns="http://www.w3.org/2000/svg" version="1.1" xmlns:xlink="http://www.w3.org/1999/xlink" width="512" height="512" x="0" y="0" viewBox="0 0 512 512" style="enable-background:new 0 0 512 512" xml:space="preserve" class=""><g><g data-name="Outline Color"><path fill="#ffc107" d="M59.612 156.988h172.593a11.953 11.953 0 0 0 11.9-12v-13.624c0-35.383 38.639-56.925 68.366-38.113l151.917 96.135c47.355 29.966 47.507 99.48.284 129.656l-156.6 100.072c-27.737 17.725-63.963-2.366-63.963-35.474v-26.588H59.612a47.807 47.807 0 0 1-47.612-48V204.988a47.807 47.807 0 0 1 47.612-48z" opacity="1" data-original="#ffc107"></path><path fill="#ffa000" d="M464.391 189.386c16.842 10.654 23 29.261 23.231 47.3.274 21.663-9.292 39.11-26.544 50.834-37.527 25.5-153.007 96.6-153.007 96.6-27.737 17.725-63.963-2.366-63.963-35.474v-10.658a11.952 11.952 0 0 0-11.9-12H59.612a47.808 47.808 0 0 1-47.612-48v31.064a47.807 47.807 0 0 0 47.612 48h184.5v26.588c0 33.108 36.226 53.2 63.963 35.474l156.6-100.072c47.225-30.176 47.071-99.69-.284-129.656z" opacity="1" data-original="#ffa000"></path><path d="M467.6 184.315 315.682 88.181a49.717 49.717 0 0 0-51.223-1.569 50.387 50.387 0 0 0-26.352 44.752v13.623a5.958 5.958 0 0 1-5.9 6H59.611c-29.561 0-53.611 24.225-53.611 54v104.065c0 29.775 24.05 54 53.611 54h178.5v20.588A47.408 47.408 0 0 0 263 425.81a46.786 46.786 0 0 0 48.3-1.64L467.905 324.1a82.982 82.982 0 0 0-.3-139.783zM238.11 351.052H59.611a41.819 41.819 0 0 1-41.486-38.9A53.378 53.378 0 0 0 59.61 331.99H232.2a5.962 5.962 0 0 1 5.91 6zm-5.91-31.062H59.61a41.854 41.854 0 0 1-41.61-42v-73a41.854 41.854 0 0 1 41.611-42h172.594a17.972 17.972 0 0 0 17.9-18v-13.626a38.539 38.539 0 0 1 20.14-34.24 37.873 37.873 0 0 1 39.019 1.2c1.762 1.145 151.633 95.9 153.276 97.025 16.269 11.222 18.952 30.757 19.079 41.411.247 19.157-8.022 34.994-23.913 45.8-36.987 25.129-151.628 95.731-152.781 96.44-.029.018-.058.035-.086.054a34.934 34.934 0 0 1-36.071 1.232 35.564 35.564 0 0 1-18.658-31.646v-10.65a17.975 17.975 0 0 0-17.91-18zM494 254.147a70.427 70.427 0 0 1-32.556 59.839l-156.6 100.073a34.943 34.943 0 0 1-36.074 1.226 35.564 35.564 0 0 1-18.66-31.645v-3.048a48.426 48.426 0 0 0 12.9 10.22 46.779 46.779 0 0 0 48.254-1.619c2.751-1.693 116.249-71.608 153.2-96.712 17.18-11.681 27.048-28.192 28.861-48.069a72.321 72.321 0 0 1 .675 9.735z" fill="#000000" opacity="1" data-original="#000000"></path></g></g></svg>