<svg xmlns="http://www.w3.org/2000/svg" version="1.1" xmlns:xlink="http://www.w3.org/1999/xlink" width="512" height="512" x="0" y="0" viewBox="0 0 682.667 682.667" style="enable-background:new 0 0 512 512" xml:space="preserve" class=""><g><defs><clipPath id="a" clipPathUnits="userSpaceOnUse"><path d="M0 512h512V0H0Z" fill="#000000" opacity="1" data-original="#000000"></path></clipPath></defs><g clip-path="url(#a)" transform="matrix(1.33333 0 0 -1.33333 0 682.667)"><path d="M0 0v-25.833a5 5 0 0 1 5-5h111.597a5 5 0 0 1 5 5V0a5 5 0 0 1-5 5H5a5 5 0 0 1-5-5" style="fill-opacity:1;fill-rule:nonzero;stroke:none" transform="translate(7.5 196.537)" fill="#91dafa" data-original="#91dafa"></path><path d="M0 0h-25a5 5 0 0 0 5-5v-25.833a5 5 0 0 0-5-5H0a5 5 0 0 1 5 5V-5a5 5 0 0 1-5 5" style="fill-opacity:1;fill-rule:nonzero;stroke:none" transform="translate(124.097 201.537)" fill="#6cbff8" data-original="#6cbff8"></path><path d="M0 0v-25.833a5 5 0 0 1 5-5h111.597a5 5 0 0 1 5 5V0a5 5 0 0 1-5 5H5a5 5 0 0 1-5-5" style="fill-opacity:1;fill-rule:nonzero;stroke:none" transform="translate(195.202 196.537)" fill="#91dafa" data-original="#91dafa"></path><path d="M0 0v-25.833a5 5 0 0 1 5-5h111.597a5 5 0 0 1 5 5V0a5 5 0 0 1-5 5H5a5 5 0 0 1-5-5" style="fill-opacity:1;fill-rule:nonzero;stroke:none" transform="translate(382.903 196.537)" fill="#91dafa" data-original="#91dafa"></path><path d="m0 0-6.297 84.302h87.924L75.331 0a5 5 0 0 0-4.987-4.627H4.986A5 5 0 0 0 0 0" style="fill-opacity:1;fill-rule:nonzero;stroke:none" transform="translate(30.633 81.402)" fill="#e9a52d" data-original="#e9a52d"></path><path d="m0 0-6.296 84.302h87.923L75.331 0a5 5 0 0 0-4.987-4.627H4.986A5 5 0 0 0 0 0" style="fill-opacity:1;fill-rule:nonzero;stroke:none" transform="translate(218.334 81.402)" fill="#6dc17d" data-original="#6dc17d"></path><path d="m0 0-6.297 84.302h87.924L75.331 0a5 5 0 0 0-4.986-4.627H4.986A5 5 0 0 0 0 0" style="fill-opacity:1;fill-rule:nonzero;stroke:none" transform="translate(406.036 81.402)" fill="#5392f9" data-original="#5392f9"></path><path d="M0 0h-25a5 5 0 0 0 5-5v-25.833a5 5 0 0 0-5-5H0a5 5 0 0 1 5 5V-5a5 5 0 0 1-5 5" style="fill-opacity:1;fill-rule:nonzero;stroke:none" transform="translate(499.5 201.537)" fill="#6cbff8" data-original="#6cbff8"></path><path d="m0 0-6.296-84.302a5 5 0 0 0-4.986-4.628h25a5 5 0 0 1 4.986 4.628L25 0Z" style="fill-opacity:1;fill-rule:nonzero;stroke:none" transform="translate(462.663 165.704)" fill="#4071f7" data-original="#4071f7"></path><path d="M0 0h-25a5 5 0 0 0 5-5v-25.833a5 5 0 0 0-5-5H0a5 5 0 0 1 5 5V-5a5 5 0 0 1-5 5" style="fill-opacity:1;fill-rule:nonzero;stroke:none" transform="translate(311.799 201.537)" fill="#6cbff8" data-original="#6cbff8"></path><path d="m0 0-6.297-84.302a5 5 0 0 0-4.986-4.628h25a5 5 0 0 1 4.986 4.628L25 0Z" style="fill-opacity:1;fill-rule:nonzero;stroke:none" transform="translate(274.962 165.704)" fill="#5ea570" data-original="#5ea570"></path><path d="m0 0-6.297-84.302a5 5 0 0 0-4.986-4.628h25a5 5 0 0 1 4.986 4.628L25 0Z" style="fill-opacity:1;fill-rule:nonzero;stroke:none" transform="translate(87.26 165.704)" fill="#e38523" data-original="#e38523"></path><path d="M0 0v8.222c0 38.369-31.104 69.474-69.475 69.474h-65.049c-29.37 0-53.177 23.808-53.177 53.177v19.242a3.79 3.79 0 0 1-3.791 3.791h-20.418a3.79 3.79 0 0 1-3.791-3.791v-19.241c0-29.37-23.808-53.178-53.177-53.178h-65.05c-38.37 0-69.475-31.105-69.475-69.474V0a5 5 0 0 0-5-5h-13.178c-4.413 0-6.662-5.301-3.595-8.475l32.178-33.3a4.998 4.998 0 0 1 7.191 0l32.178 33.3c3.067 3.174.817 8.475-3.596 8.475h-13.178a5 5 0 0 0-5 5v8.222c0 22.905 18.569 41.474 41.475 41.474h65.05c17.679 0 34.045 5.695 47.389 15.331 2.414 1.743 5.788-.02 5.788-2.998V0a5 5 0 0 0-5-5h-13.178c-4.413 0-6.663-5.301-3.596-8.475l32.178-33.3a5 5 0 0 1 7.192 0l32.177 33.3c3.067 3.174.818 8.475-3.595 8.475h-13.178a5 5 0 0 0-5 5v62.029c0 2.978 3.374 4.741 5.788 2.998 13.343-9.636 29.709-15.331 47.389-15.331h65.049C-46.568 49.696-28 31.127-28 8.222V0a5 5 0 0 0-5-5h-13.178c-4.413 0-6.662-5.301-3.595-8.475l32.177-33.3a5 5 0 0 1 7.192 0l32.177 33.3C24.841-10.301 22.592-5 18.178-5H5a5 5 0 0 0-5 5" style="fill-opacity:1;fill-rule:nonzero;stroke:none" transform="translate(457.701 281.32)" fill="#de5791" data-original="#de5791"></path><path d="M0 0v-25.833a5 5 0 0 1 5-5h111.597a5 5 0 0 1 5 5V0a5 5 0 0 1-5 5H5a5 5 0 0 1-5-5Z" style="stroke-width:15;stroke-linecap:round;stroke-linejoin:round;stroke-miterlimit:10;stroke-dasharray:none;stroke-opacity:1" transform="translate(7.5 196.537)" fill="none" stroke="#000000" stroke-width="15" stroke-linecap="round" stroke-linejoin="round" stroke-miterlimit="10" stroke-dasharray="none" stroke-opacity="" data-original="#000000"></path><path d="m0 0-6.297-84.302a5 5 0 0 0-4.986-4.628h-65.359a5 5 0 0 0-4.985 4.628L-87.924 0" style="stroke-width:15;stroke-linecap:round;stroke-linejoin:round;stroke-miterlimit:10;stroke-dasharray:none;stroke-opacity:1" transform="translate(112.26 165.704)" fill="none" stroke="#000000" stroke-width="15" stroke-linecap="round" stroke-linejoin="round" stroke-miterlimit="10" stroke-dasharray="none" stroke-opacity="" data-original="#000000"></path><path d="M0 0h-38.298a5 5 0 0 1-5-5v-25.833a5 5 0 0 1 5-5H73.299a5 5 0 0 1 5 5V-5a5 5 0 0 1-5 5H35" style="stroke-width:15;stroke-linecap:round;stroke-linejoin:round;stroke-miterlimit:10;stroke-dasharray:none;stroke-opacity:1" transform="translate(238.5 201.537)" fill="none" stroke="#000000" stroke-width="15" stroke-linecap="round" stroke-linejoin="round" stroke-miterlimit="10" stroke-dasharray="none" stroke-opacity="" data-original="#000000"></path><path d="m0 0-6.297-84.302a5 5 0 0 0-4.986-4.628h-65.358a5 5 0 0 0-4.986 4.628L-87.924 0" style="stroke-width:15;stroke-linecap:round;stroke-linejoin:round;stroke-miterlimit:10;stroke-dasharray:none;stroke-opacity:1" transform="translate(299.962 165.704)" fill="none" stroke="#000000" stroke-width="15" stroke-linecap="round" stroke-linejoin="round" stroke-miterlimit="10" stroke-dasharray="none" stroke-opacity="" data-original="#000000"></path><path d="M0 0v-25.833a5 5 0 0 1 5-5h111.597a5 5 0 0 1 5 5V0a5 5 0 0 1-5 5H5a5 5 0 0 1-5-5Z" style="stroke-width:15;stroke-linecap:round;stroke-linejoin:round;stroke-miterlimit:10;stroke-dasharray:none;stroke-opacity:1" transform="translate(382.903 196.537)" fill="none" stroke="#000000" stroke-width="15" stroke-linecap="round" stroke-linejoin="round" stroke-miterlimit="10" stroke-dasharray="none" stroke-opacity="" data-original="#000000"></path><path d="m0 0-6.296-84.302a5 5 0 0 0-4.986-4.628h-65.359a5 5 0 0 0-4.986 4.628L-87.924 0" style="stroke-width:15;stroke-linecap:round;stroke-linejoin:round;stroke-miterlimit:10;stroke-dasharray:none;stroke-opacity:1" transform="translate(487.663 165.704)" fill="none" stroke="#000000" stroke-width="15" stroke-linecap="round" stroke-linejoin="round" stroke-miterlimit="10" stroke-dasharray="none" stroke-opacity="" data-original="#000000"></path><path d="M0 0h-51.213c-29.369 0-53.177 23.808-53.177 53.177v19.242a3.79 3.79 0 0 1-3.791 3.791h-20.417a3.791 3.791 0 0 1-3.792-3.791V53.177C-132.39 23.808-156.198 0-185.567 0h-65.05c-38.369 0-69.474-31.105-69.474-69.475v-8.221a5 5 0 0 0-5-5h-13.178c-4.413 0-6.662-5.301-3.596-8.475l32.178-33.301a5 5 0 0 1 7.191 0l32.178 33.301c3.067 3.174.818 8.475-3.595 8.475h-13.178a5 5 0 0 0-5 5v8.221c0 22.906 18.569 41.475 41.474 41.475h65.05c17.68 0 34.046 5.694 47.389 15.331 2.414 1.743 5.788-.02 5.788-2.998v-62.029a5 5 0 0 0-5-5h-13.177c-4.414 0-6.663-5.301-3.596-8.475l32.178-33.301a5 5 0 0 1 7.191 0l32.178 33.301c3.066 3.174.817 8.475-3.596 8.475H-99.39a5 5 0 0 0-5 5v62.029c0 2.978 3.374 4.741 5.788 2.998C-85.259-22.306-68.893-28-51.213-28h65.05c22.906 0 41.475-18.569 41.475-41.475v-8.221a5 5 0 0 0-5-5H37.134c-4.413 0-6.662-5.301-3.596-8.475l32.178-33.301a5 5 0 0 1 7.191 0l32.178 33.301c3.067 3.174.818 8.475-3.596 8.475H88.312a5 5 0 0 0-5 5v8.221c0 30.99-20.291 57.241-48.311 66.192" style="stroke-width:15;stroke-linecap:round;stroke-linejoin:round;stroke-miterlimit:10;stroke-dasharray:none;stroke-opacity:1" transform="translate(374.39 359.016)" fill="none" stroke="#000000" stroke-width="15" stroke-linecap="round" stroke-linejoin="round" stroke-miterlimit="10" stroke-dasharray="none" stroke-opacity="" data-original="#000000"></path></g></g></svg>