<svg xmlns="http://www.w3.org/2000/svg" version="1.1" xmlns:xlink="http://www.w3.org/1999/xlink" width="512" height="512" x="0" y="0" viewBox="0 0 24 24" style="enable-background:new 0 0 512 512" xml:space="preserve"><g><rect width="19" height="13" x="2.5" y="5.5" fill="#ffffff" stroke="#cce3f4" rx="1.5" opacity="1" data-original="#ffffff"></rect><path fill="#303c45" d="M10.028 15h-1.1l-.438-1.138H6.487L6.073 15H5l1.952-5.01h1.07zm-1.863-1.982-.69-1.86-.677 1.86zm3.254-.54-.872-.158c.098-.35.267-.61.506-.779.24-.169.595-.253 1.066-.253.429 0 .748.051.957.154.21.1.357.229.441.386.087.155.13.441.13.858l-.01 1.121c0 .32.015.555.044.708.032.15.09.312.175.485h-.95a3.58 3.58 0 0 1-.093-.284 1.722 1.722 0 0 0-.034-.112c-.164.159-.34.279-.526.358-.187.08-.386.12-.598.12-.374 0-.67-.101-.886-.304a1.014 1.014 0 0 1-.32-.77c0-.204.048-.387.146-.546a.948.948 0 0 1 .41-.37c.178-.086.433-.161.766-.225.449-.084.76-.163.933-.236v-.095c0-.185-.046-.316-.137-.393-.09-.08-.263-.12-.516-.12-.17 0-.304.034-.4.103-.096.066-.173.183-.232.352zm1.285.779c-.123.04-.318.09-.585.147s-.44.113-.523.167a.4.4 0 0 0-.187.339c0 .134.05.25.15.348.1.098.228.147.383.147a.832.832 0 0 0 .495-.17.602.602 0 0 0 .23-.319c.024-.082.037-.238.037-.468z" opacity="1" data-original="#303c45"></path><path fill="#40505c" d="M17.5 11a2.496 2.496 0 0 0-1.982-1H15.5a.5.5 0 1 0 0 1 1.5 1.5 0 0 1 1.5 1.5v6a1.5 1.5 0 0 1-1.486 1.5H15.5a.5.5 0 1 0 0 1c.818 0 1.544-.392 2-1 .456.608 1.182 1 2 1a.5.5 0 1 0-.014-1A1.5 1.5 0 0 1 18 18.5v-6a1.5 1.5 0 0 1 1.5-1.5.5.5 0 0 0 0-1H19.482c-.81.006-1.53.397-1.982 1z" opacity="1" data-original="#40505c"></path></g></svg>