<svg xmlns="http://www.w3.org/2000/svg" version="1.1" xmlns:xlink="http://www.w3.org/1999/xlink" width="512" height="512" x="0" y="0" viewBox="0 0 256 256" style="enable-background:new 0 0 512 512" xml:space="preserve" class=""><g><path fill="#526faa" d="M188.888 252H23.516c-5.622 0-10.18-4.558-10.18-10.18V37.975c0-5.622 4.558-10.18 10.18-10.18h165.372c5.622 0 10.18 4.558 10.18 10.18V241.82c0 5.622-4.557 10.18-10.18 10.18z" opacity="1" data-original="#526faa" class="hovered-path custom-cursor-on-hover"></path><path fill="#34518c" d="M188.888 27.795h-8c5.622 0 10.18 4.558 10.18 10.18V241.82c0 5.622-4.558 10.18-10.18 10.18h8c5.622 0 10.18-4.558 10.18-10.18V37.975c0-5.622-4.557-10.18-10.18-10.18z" opacity="1" data-original="#34518c"></path><path fill="#708dc8" d="M23.516 252h8c-5.622 0-10.18-4.558-10.18-10.18V37.975c0-5.622 4.558-10.18 10.18-10.18h-8c-5.622 0-10.18 4.558-10.18 10.18V241.82c0 5.622 4.558 10.18 10.18 10.18z" opacity="1" data-original="#708dc8" class=""></path><path fill="#f4efed" d="M179.598 239.919H32.807a5 5 0 0 1-5-5V44.876a5 5 0 0 1 5-5h146.79a5 5 0 0 1 5 5v190.043a4.999 4.999 0 0 1-4.999 5z" opacity="1" data-original="#f4efed" class="hovered-path custom-cursor-on-hover"></path><path fill="#690589" d="M188.889 254H23.517c-6.717 0-12.181-5.464-12.181-12.18V37.975c0-6.716 5.464-12.18 12.181-12.18h165.372c6.716 0 12.18 5.464 12.18 12.18V241.82c-.001 6.716-5.464 12.18-12.18 12.18zM23.517 29.795c-4.511 0-8.181 3.67-8.181 8.18V241.82c0 4.511 3.67 8.18 8.181 8.18h165.372c4.511 0 8.18-3.669 8.18-8.18V37.975c0-4.511-3.669-8.18-8.18-8.18z" opacity="1" data-original="#690589" class="hovered-path custom-cursor-on-hover"></path><path fill="#690589" d="M179.598 241.919H32.808c-3.859 0-7-3.14-7-7V44.877c0-3.86 3.141-7 7-7h146.79c3.859 0 7 3.14 7 7v190.042c0 3.86-3.141 7-7 7zM32.808 41.877c-1.654 0-3 1.346-3 3v190.042c0 1.654 1.346 3 3 3h146.79c1.654 0 3-1.346 3-3V44.877c0-1.654-1.346-3-3-3z" opacity="1" data-original="#690589" class=""></path><path fill="#fcc24c" d="M117.777 20.685v-5.111C117.777 9.182 112.595 4 106.202 4 99.81 4 94.628 9.182 94.628 15.574v5.111H77.977a5.144 5.144 0 0 0-5.145 5.145v15.912a5.145 5.145 0 0 0 5.145 5.145h56.451a5.144 5.144 0 0 0 5.145-5.145V25.831a5.144 5.144 0 0 0-5.145-5.145h-16.651z" opacity="1" data-original="#fcc24c" class=""></path><path fill="#690589" d="M134.428 48.888H77.977c-3.939 0-7.145-3.206-7.145-7.146V25.831a7.153 7.153 0 0 1 7.145-7.145h14.651v-3.111C92.628 8.089 98.718 2 106.202 2s13.574 6.089 13.574 13.574v3.111h14.651a7.153 7.153 0 0 1 7.145 7.145v15.912a7.152 7.152 0 0 1-7.144 7.146zM77.977 22.686a3.149 3.149 0 0 0-3.145 3.145v15.912a3.149 3.149 0 0 0 3.145 3.146h56.451a3.149 3.149 0 0 0 3.145-3.146V25.831a3.149 3.149 0 0 0-3.145-3.145h-16.651a2 2 0 0 1-2-2v-5.111c0-5.279-4.295-9.574-9.574-9.574s-9.574 4.295-9.574 9.574v5.111a2 2 0 0 1-2 2z" opacity="1" data-original="#690589" class=""></path><path fill="#fcc24c" d="M42.838 63.227H68.31v25.472H42.838z" opacity="1" data-original="#fcc24c" class=""></path><path fill="#690589" d="M68.31 90.699H42.838a2 2 0 0 1-2-2V63.227a2 2 0 0 1 2-2H68.31a2 2 0 0 1 2 2V88.7a2 2 0 0 1-2 1.999zm-23.472-4H66.31V65.227H44.838z" opacity="1" data-original="#690589" class=""></path><path fill="#690589" d="M54.673 82.768c-.45 0-.901-.151-1.274-.459l-5.985-4.955a2 2 0 1 1 2.55-3.081l4.488 3.715 7.146-8.148a2.001 2.001 0 0 1 3.008 2.637l-8.429 9.609a1.994 1.994 0 0 1-1.504.682zM169.566 77.963H82.953a2 2 0 0 1 0-4h86.613a2 2 0 0 1 0 4z" opacity="1" data-original="#690589" class=""></path><path fill="#fcc24c" d="M42.838 106.594H68.31v25.472H42.838z" opacity="1" data-original="#fcc24c" class=""></path><path fill="#690589" d="M68.31 134.066H42.838a2 2 0 0 1-2-2v-25.473a2 2 0 0 1 2-2H68.31a2 2 0 0 1 2 2v25.473a2 2 0 0 1-2 2zm-23.472-4H66.31v-21.473H44.838z" opacity="1" data-original="#690589" class=""></path><path fill="#690589" d="M54.673 126.134c-.45 0-.901-.151-1.274-.459l-5.985-4.955a2 2 0 1 1 2.55-3.081l4.488 3.715 7.146-8.148a2.001 2.001 0 0 1 3.008 2.637l-8.429 9.609a1.994 1.994 0 0 1-1.504.682zM169.566 121.33H82.953a2 2 0 0 1 0-4h86.613a2 2 0 0 1 0 4z" opacity="1" data-original="#690589" class=""></path><path fill="#f4efed" d="M42.838 149.96H68.31v25.472H42.838z" opacity="1" data-original="#f4efed" class=""></path><path fill="#690589" d="M68.31 177.433H42.838a2 2 0 0 1-2-2V149.96a2 2 0 0 1 2-2H68.31a2 2 0 0 1 2 2v25.472a2 2 0 0 1-2 2.001zm-23.472-4H66.31V151.96H44.838zM169.566 164.697H82.953a2 2 0 1 1 0-4h86.613a2 2 0 0 1 0 4z" opacity="1" data-original="#690589" class=""></path><path fill="#f4efed" d="M42.838 193.327H68.31v25.472H42.838z" opacity="1" data-original="#f4efed" class=""></path><path fill="#690589" d="M68.31 220.799H42.838a2 2 0 0 1-2-2v-25.472a2 2 0 0 1 2-2H68.31a2 2 0 0 1 2 2v25.472a2 2 0 0 1-2 2zm-23.472-4H66.31v-21.472H44.838zM169.566 208.064H82.953a2 2 0 0 1 0-4h86.613a2 2 0 0 1 0 4zM21.336 100.078a2 2 0 0 1-2-2v-12a2 2 0 0 1 4 0v12a2 2 0 0 1-2 2z" opacity="1" data-original="#690589" class=""></path><circle cx="199.068" cy="198.804" r="53.196" fill="#ff4397" opacity="1" data-original="#ff4397" class=""></circle><path fill="#e12579" d="M199.068 145.608c-1.007 0-2.007.034-3 .089 27.983 1.557 50.196 24.735 50.196 53.107s-22.213 51.551-50.196 53.107c.993.055 1.993.089 3 .089 29.379 0 53.196-23.817 53.196-53.196s-23.816-53.196-53.196-53.196z" opacity="1" data-original="#e12579"></path><path fill="#ff61b5" d="M199.068 252c1.007 0 2.007-.034 3-.089-27.983-1.557-50.196-24.735-50.196-53.107s22.213-51.551 50.196-53.107a54.218 54.218 0 0 0-3-.089c-29.379 0-53.196 23.817-53.196 53.196S169.689 252 199.068 252z" opacity="1" data-original="#ff61b5"></path><circle cx="199.068" cy="198.804" r="42.005" fill="#f4efed" transform="rotate(-45 199.047 198.855)" opacity="1" data-original="#f4efed" class=""></circle><path fill="#690589" d="M199.068 242.809c-24.265 0-44.005-19.741-44.005-44.005s19.74-44.005 44.005-44.005 44.005 19.741 44.005 44.005-19.74 44.005-44.005 44.005zm0-84.01c-22.059 0-40.005 17.946-40.005 40.005s17.946 40.005 40.005 40.005 40.005-17.946 40.005-40.005-17.946-40.005-40.005-40.005z" opacity="1" data-original="#690589" class=""></path><path fill="#690589" d="M199.068 254c-30.436 0-55.196-24.761-55.196-55.196s24.761-55.196 55.196-55.196c30.436 0 55.196 24.761 55.196 55.196.001 30.435-24.76 55.196-55.196 55.196zm0-106.392c-28.23 0-51.196 22.966-51.196 51.196S170.839 250 199.068 250s51.196-22.967 51.196-51.196-22.966-51.196-51.196-51.196z" opacity="1" data-original="#690589" class=""></path><path fill="#690589" d="M199.068 242.809a2 2 0 0 1-2-2v-5.256a2 2 0 0 1 4 0v5.256a2 2 0 0 1-2 2zM199.068 164.055a2 2 0 0 1-2-2v-5.256a2 2 0 0 1 4 0v5.256a2 2 0 0 1-2 2zM217.808 169.194a2 2 0 0 1-1.719-3.02l2.681-4.521a2 2 0 0 1 3.441 2.04l-2.681 4.521c-.374.629-1.04.98-1.722.98zM177.645 236.937a2 2 0 0 1-1.719-3.02l2.681-4.521a2 2 0 0 1 3.441 2.04l-2.681 4.521c-.374.629-1.04.98-1.722.98zM231.239 183.038a2 2 0 0 1-.969-3.752l4.602-2.541a2 2 0 0 1 1.934 3.502l-4.602 2.541c-.306.17-.638.25-.965.25zM162.3 221.112a2 2 0 0 1-.969-3.752l4.602-2.541a2.001 2.001 0 0 1 1.934 3.502l-4.602 2.541c-.307.169-.638.25-.965.25zM180.329 169.194a2 2 0 0 1-1.723-.98l-2.681-4.521a2 2 0 0 1 3.441-2.04l2.681 4.521a2 2 0 0 1-1.718 3.02zM220.492 236.937a2 2 0 0 1-1.723-.98l-2.681-4.521a2 2 0 0 1 3.441-2.04l2.681 4.521a2 2 0 0 1-1.718 3.02zM166.898 183.038c-.327 0-.658-.081-.965-.249l-4.602-2.541a2 2 0 0 1 1.934-3.502l4.602 2.541a2 2 0 0 1-.969 3.751zM235.837 221.112c-.327 0-.658-.081-.965-.249l-4.602-2.541a2 2 0 0 1 1.934-3.502l4.602 2.541a2 2 0 0 1-.969 3.751zM241.073 200.804h-5.256a2 2 0 0 1 0-4h5.256a2 2 0 0 1 0 4zM162.319 200.804h-5.256a2 2 0 1 1 0-4h5.256a2 2 0 0 1 0 4zM209.989 217.14a1.999 1.999 0 0 1-1.665-.889l-10.919-16.336a2 2 0 0 1-.337-1.111v-28.487a2 2 0 1 1 4 0v27.88l10.582 15.832a2.001 2.001 0 0 1-1.661 3.111z" opacity="1" data-original="#690589" class=""></path><circle cx="199.068" cy="198.804" r="6.79" fill="#526faa" opacity="1" data-original="#526faa" class=""></circle><path fill="#690589" d="M199.068 207.594c-4.847 0-8.79-3.943-8.79-8.79s3.943-8.789 8.79-8.789 8.79 3.943 8.79 8.789-3.943 8.79-8.79 8.79zm0-13.58c-2.642 0-4.79 2.148-4.79 4.789s2.148 4.79 4.79 4.79 4.79-2.149 4.79-4.79-2.148-4.789-4.79-4.789z" opacity="1" data-original="#690589" class=""></path></g></svg>